<?xml version="1.0" encoding="UTF-8" standalone="no"?>
<!DOCTYPE svg PUBLIC "-//W3C//DTD SVG 1.1//EN" "http://www.w3.org/Graphics/SVG/1.1/DTD/svg11.dtd">
<svg width="100%" height="100%" viewBox="0 0 1024 1024" version="1.1" xmlns="http://www.w3.org/2000/svg" xmlns:xlink="http://www.w3.org/1999/xlink" xml:space="preserve" xmlns:serif="http://www.serif.com/" style="fill-rule:evenodd;clip-rule:evenodd;stroke-linejoin:round;stroke-miterlimit:2;">
    <g transform="matrix(1.334802,0,0,1.334802,-166.207035,-239.790955)">
        <path d="M891.673,303.052L891.673,823.393C891.673,891.504 836.376,946.8 768.266,946.8L247.925,946.8C179.815,946.8 124.518,891.504 124.518,823.393L124.518,303.052C124.518,234.942 179.815,179.645 247.925,179.645L768.266,179.645C836.376,179.645 891.673,234.942 891.673,303.052Z" style="fill:rgb(27,27,27);"/>
        <clipPath id="_clip1">
            <path d="M891.673,303.052L891.673,823.393C891.673,891.504 836.376,946.8 768.266,946.8L247.925,946.8C179.815,946.8 124.518,891.504 124.518,823.393L124.518,303.052C124.518,234.942 179.815,179.645 247.925,179.645L768.266,179.645C836.376,179.645 891.673,234.942 891.673,303.052Z"/>
        </clipPath>
        <g clip-path="url(#_clip1)">
            <g transform="matrix(1,0,0,1,8.095605,63.222822)">
                <path d="M335.329,776.099C320.332,776.099 306.38,783.784 298.366,796.461C286.169,815.753 264.661,828.599 240.17,828.599C202.215,828.599 171.401,797.785 171.401,759.83C171.401,735.339 184.247,713.831 203.539,701.634C216.216,693.62 223.901,679.668 223.901,664.671L223.901,595.16C223.901,580.162 216.216,566.21 203.539,558.196C184.247,545.999 171.401,524.492 171.401,500C171.401,475.508 184.247,454.001 203.539,441.804C216.216,433.79 223.901,419.838 223.901,404.84L223.901,335.329C223.901,320.332 216.216,306.38 203.539,298.366C184.247,286.169 171.401,264.661 171.401,240.17C171.401,202.215 202.215,171.401 240.17,171.401C264.661,171.401 286.169,184.247 298.366,203.539C306.38,216.216 320.332,223.901 335.329,223.901L404.84,223.901C419.838,223.901 433.79,216.216 441.804,203.539C454.001,184.247 475.508,171.401 500,171.401C524.492,171.401 545.999,184.247 558.196,203.539C566.21,216.216 580.162,223.901 595.16,223.901L664.671,223.901C679.668,223.901 693.62,216.216 701.634,203.539C713.831,184.247 735.339,171.401 759.83,171.401C797.785,171.401 828.599,202.215 828.599,240.17C828.599,264.661 815.753,286.169 796.461,298.366C783.784,306.38 776.099,320.332 776.099,335.329L776.099,404.84C776.099,419.838 783.784,433.79 796.461,441.804C815.753,454.001 828.599,475.508 828.599,500C828.599,524.492 815.753,545.999 796.461,558.196C783.784,566.21 776.099,580.162 776.099,595.16L776.099,664.671C776.099,679.668 783.784,693.62 796.461,701.634C815.753,713.831 828.599,735.339 828.599,759.83C828.599,797.785 797.785,828.599 759.83,828.599C735.339,828.599 713.831,815.753 701.634,796.461C693.62,783.784 679.668,776.099 664.671,776.099L595.16,776.099C580.162,776.099 566.21,783.784 558.196,796.461C545.999,815.753 524.492,828.599 500,828.599C475.508,828.599 454.001,815.753 441.804,796.461C433.79,783.784 419.838,776.099 404.84,776.099L335.329,776.099ZM483.732,335.329C483.732,320.332 476.046,306.38 463.37,298.366C454.679,292.871 447.298,285.49 441.804,276.8C433.79,264.123 419.838,256.438 404.84,256.438L335.329,256.438C320.332,256.438 306.38,264.123 298.366,276.8C292.871,285.49 285.49,292.871 276.8,298.366C264.123,306.38 256.438,320.332 256.438,335.329L256.438,404.84C256.438,419.838 264.123,433.79 276.8,441.804C296.092,454.001 308.938,475.508 308.938,500C308.938,524.492 296.092,545.999 276.8,558.196C264.123,566.21 256.438,580.162 256.438,595.16L256.438,664.671C256.438,679.668 264.123,693.62 276.8,701.634C285.49,707.129 292.871,714.51 298.366,723.2C306.38,735.877 320.332,743.562 335.329,743.562L404.84,743.562C419.838,743.562 433.79,735.877 441.804,723.2C447.298,714.51 454.679,707.129 463.37,701.634C476.046,693.62 483.732,679.668 483.732,664.671L483.732,595.16C483.732,580.162 476.046,566.21 463.37,558.196C444.078,545.999 431.232,524.492 431.232,500C431.232,475.508 444.078,454.001 463.37,441.804C476.046,433.79 483.732,419.838 483.732,404.84L483.732,335.329ZM516.268,664.671C516.268,679.668 523.954,693.62 536.63,701.634C545.321,707.129 552.702,714.51 558.196,723.2C566.21,735.877 580.162,743.562 595.16,743.562L664.671,743.562C679.668,743.562 693.62,735.877 701.634,723.2C707.129,714.51 714.51,707.129 723.2,701.634C735.877,693.62 743.562,679.668 743.562,664.671L743.562,595.16C743.562,580.162 735.877,566.21 723.2,558.196C703.908,545.999 691.062,524.492 691.062,500C691.062,475.508 703.908,454.001 723.2,441.804C735.877,433.79 743.562,419.838 743.562,404.84L743.562,335.329C743.562,320.332 735.877,306.38 723.2,298.366C714.51,292.871 707.129,285.49 701.634,276.8C693.62,264.123 679.668,256.438 664.671,256.438L595.16,256.438C580.162,256.438 566.21,264.123 558.196,276.8C552.702,285.49 545.321,292.871 536.63,298.366C523.954,306.38 516.268,320.332 516.268,335.329L516.268,404.84C516.268,419.838 523.954,433.79 536.63,441.804C555.922,454.001 568.768,475.508 568.768,500C568.768,524.492 555.922,545.999 536.63,558.196C523.954,566.21 516.268,580.162 516.268,595.16L516.268,664.671Z" style="fill:rgb(56,56,56);"/>
            </g>
            <g transform="matrix(1,0,0,1,8.095605,63.222822)">
                <path d="M759.83,431.232C797.785,431.232 828.599,462.046 828.599,500C828.599,537.954 797.785,568.768 759.83,568.768C721.876,568.768 691.062,537.954 691.062,500C691.062,462.046 721.876,431.232 759.83,431.232ZM483.732,335.329C483.732,320.332 476.046,306.38 463.37,298.366C454.679,292.871 447.298,285.49 441.804,276.8C433.79,264.123 419.838,256.438 404.84,256.438L335.329,256.438C320.332,256.438 306.38,264.123 298.366,276.8C286.169,296.092 264.661,308.938 240.17,308.938C202.215,308.938 171.401,278.124 171.401,240.17C171.401,202.215 202.215,171.401 240.17,171.401C264.661,171.401 286.169,184.247 298.366,203.539C306.38,216.216 320.332,223.901 335.329,223.901L404.84,223.901C419.838,223.901 433.79,216.216 441.804,203.539C454.001,184.247 475.508,171.401 500,171.401C524.492,171.401 545.999,184.247 558.196,203.539C566.21,216.216 580.162,223.901 595.16,223.901L664.671,223.901C679.668,223.901 693.62,216.216 701.634,203.539C713.831,184.247 735.339,171.401 759.83,171.401C797.785,171.401 828.599,202.215 828.599,240.17C828.599,278.124 797.785,308.938 759.83,308.938C735.339,308.938 713.831,296.092 701.634,276.8C693.62,264.123 679.668,256.438 664.671,256.438L595.16,256.438C580.162,256.438 566.21,264.123 558.196,276.8C552.702,285.49 545.321,292.871 536.63,298.366C523.954,306.38 516.268,320.332 516.268,335.329L516.268,404.84C516.268,419.838 523.954,433.79 536.63,441.804C555.922,454.001 568.768,475.508 568.768,500C568.768,524.492 555.922,545.999 536.63,558.196C523.954,566.21 516.268,580.162 516.268,595.16L516.268,664.671C516.268,679.668 523.954,693.62 536.63,701.634C545.321,707.129 552.702,714.51 558.196,723.2C566.21,735.877 580.162,743.562 595.16,743.562L664.671,743.562C679.668,743.562 693.62,735.877 701.634,723.2C713.831,703.908 735.339,691.062 759.83,691.062C797.785,691.062 828.599,721.876 828.599,759.83C828.599,797.785 797.785,828.599 759.83,828.599C735.339,828.599 713.831,815.753 701.634,796.461C693.62,783.784 679.668,776.099 664.671,776.099L595.16,776.099C580.162,776.099 566.21,783.784 558.196,796.461C545.999,815.753 524.492,828.599 500,828.599C475.508,828.599 454.001,815.753 441.804,796.461C433.79,783.784 419.838,776.099 404.84,776.099L335.329,776.099C320.332,776.099 306.38,783.784 298.366,796.461C286.169,815.753 264.661,828.599 240.17,828.599C202.215,828.599 171.401,797.785 171.401,759.83C171.401,721.876 202.215,691.062 240.17,691.062C264.661,691.062 286.169,703.908 298.366,723.2C306.38,735.877 320.332,743.562 335.329,743.562L404.84,743.562C419.838,743.562 433.79,735.877 441.804,723.2C447.298,714.51 454.679,707.129 463.37,701.634C476.046,693.62 483.732,679.668 483.732,664.671L483.732,595.16C483.732,580.162 476.046,566.21 463.37,558.196C444.078,545.999 431.232,524.492 431.232,500C431.232,475.508 444.078,454.001 463.37,441.804C476.046,433.79 483.732,419.838 483.732,404.84L483.732,335.329ZM240.17,431.232C278.124,431.232 308.938,462.046 308.938,500C308.938,537.954 278.124,568.768 240.17,568.768C202.215,568.768 171.401,537.954 171.401,500C171.401,462.046 202.215,431.232 240.17,431.232Z" style="fill:rgb(106,106,106);"/>
            </g>
            <g transform="matrix(1,0,0,1,8.095605,63.222822)">
                <path d="M578.811,704.026C568.198,714.639 563.769,729.954 567.079,744.594C568.188,749.496 568.768,754.596 568.768,759.83C568.768,797.785 537.954,828.599 500,828.599C462.046,828.599 431.232,797.785 431.232,759.83C431.232,754.596 431.812,749.496 432.921,744.594C436.231,729.954 431.802,714.639 421.189,704.026L295.974,578.811C285.361,568.198 270.046,563.769 255.406,567.079C250.504,568.188 245.404,568.768 240.17,568.768C202.215,568.768 171.401,537.954 171.401,500C171.401,462.046 202.215,431.232 240.17,431.232C245.404,431.232 250.504,431.812 255.406,432.921C270.046,436.231 285.361,431.802 295.974,421.189L421.189,295.974C431.802,285.361 436.231,270.046 432.921,255.406C431.812,250.504 431.232,245.404 431.232,240.17C431.232,202.215 462.046,171.401 500,171.401C537.954,171.401 568.768,202.215 568.768,240.17C568.768,278.124 537.954,308.938 500,308.938C494.765,308.938 489.666,308.357 484.764,307.249C470.124,303.938 454.809,308.367 444.196,318.981L318.981,444.196C308.367,454.809 303.938,470.124 307.249,484.764C308.357,489.666 308.938,494.765 308.938,500C308.938,505.235 308.357,510.334 307.249,515.236C303.938,529.876 308.367,545.191 318.981,555.804L444.196,681.019C454.809,691.633 470.124,696.062 484.764,692.751C489.666,691.643 494.765,691.062 500,691.062C505.235,691.062 510.334,691.643 515.236,692.751C529.876,696.062 545.191,691.633 555.804,681.019L645.901,590.923C658.408,578.416 662.149,559.606 655.38,543.265C648.612,526.923 632.665,516.268 614.978,516.268L595.16,516.268C580.162,516.268 566.21,523.954 558.196,536.63C545.999,555.922 524.492,568.768 500,568.768C462.046,568.768 431.232,537.954 431.232,500C431.232,462.046 462.046,431.232 500,431.232C524.492,431.232 545.999,444.078 558.196,463.37C566.21,476.046 580.162,483.732 595.16,483.732L664.671,483.732C679.668,483.732 693.62,476.046 701.634,463.37C713.831,444.078 735.339,431.232 759.83,431.232C797.785,431.232 828.599,462.046 828.599,500C828.599,537.954 797.785,568.768 759.83,568.768C754.596,568.768 749.496,568.188 744.594,567.079C729.954,563.769 714.639,568.198 704.026,578.811L578.811,704.026Z" style="fill:rgb(219,108,57);"/>
            </g>
        </g>
    </g>
</svg>
